<?xml version="1.0" encoding="UTF-8"?>
<svg viewBox="0 0 60 100" xmlns="http://www.w3.org/2000/svg" xmlns:xlink="http://www.w3.org/1999/xlink">
  <rect x="00" y="00" width="9" height="9" rx="2" fill="#333"/>
  <rect x="10" y="00" width="9" height="9" rx="2" fill="#333"/>
  <rect x="20" y="00" width="9" height="9" rx="2" fill="#333"/>
  <rect x="30" y="00" width="9" height="9" rx="2" fill="#333"/>
  <rect x="40" y="00" width="9" height="9" rx="2" fill="#333"/>
  <rect x="00" y="10" width="9" height="9" rx="2" fill="#333"/>
  <rect x="10" y="10" width="9" height="9" rx="2" fill="#333"/>
  <rect x="20" y="10" width="9" height="9" rx="2" fill="#333"/>
  <rect x="30" y="10" width="9" height="9" rx="2" fill="#333"/>
  <rect x="40" y="10" width="9" height="9" rx="2" fill="#333"/>
  <rect x="00" y="20" width="9" height="9" rx="2" fill="#333"/>
  <rect x="10" y="20" width="9" height="9" rx="2" fill="#333"/>
  <rect x="20" y="20" width="9" height="9" rx="2" fill="#333"/>
  <rect x="30" y="20" width="9" height="9" rx="2" fill="#333"/>
  <rect x="40" y="20" width="9" height="9" rx="2" fill="#333"/>
  <rect x="00" y="30" width="9" height="9" rx="2" fill="#333"/>
  <rect x="10" y="30" width="9" height="9" rx="2" fill="#333"/>
  <rect x="20" y="30" width="9" height="9" rx="2" fill="#333"/>
  <rect x="30" y="30" width="9" height="9" rx="2" fill="#333"/>
  <rect x="40" y="30" width="9" height="9" rx="2" fill="#333"/>
  <rect x="00" y="40" width="9" height="9" rx="2" fill="#333"/>
  <rect x="10" y="40" width="9" height="9" rx="2" fill="#333"/>
  <rect x="20" y="40" width="9" height="9" rx="2" fill="#333"/>
  <rect x="30" y="40" width="9" height="9" rx="2" fill="#333"/>
  <rect x="40" y="40" width="9" height="9" rx="2" fill="#333"/>
  <rect x="00" y="50" width="9" height="9" rx="2" fill="#333"/>
  <rect x="10" y="50" width="9" height="9" rx="2" fill="#333"/>
  <rect x="20" y="50" width="9" height="9" rx="2" fill="#333"/>
  <rect x="30" y="50" width="9" height="9" rx="2" fill="#333"/>
  <rect x="40" y="50" width="9" height="9" rx="2" fill="#333"/>
  <rect x="00" y="60" width="9" height="9" rx="2" fill="#333"/>
  <rect x="10" y="60" width="9" height="9" rx="2" fill="#333"/>
  <rect x="20" y="60" width="9" height="9" rx="2" fill="#333"/>
  <rect x="30" y="60" width="9" height="9" rx="2" fill="#333"/>
  <rect x="40" y="60" width="9" height="9" rx="2" fill="#333"/>

  <rect x="00" y="70" width="9" height="9" rx="2" fill="#333"/>
  <rect x="10" y="70" width="9" height="9" rx="2" fill="#333"/>
  <rect x="20" y="70" width="9" height="9" rx="2" fill="#333"/>
  <rect x="30" y="70" width="9" height="9" rx="2" fill="#333"/>
  <rect x="40" y="70" width="9" height="9" rx="2" fill="#333"/>

  <rect x="00" y="80" width="9" height="9" rx="2" fill="#333"/>
  <rect x="10" y="80" width="9" height="9" rx="2" fill="#333"/>
  <rect x="20" y="80" width="9" height="9" rx="2" fill="#333"/>
  <rect x="30" y="80" width="9" height="9" rx="2" fill="#333"/>
  <rect x="40" y="80" width="9" height="9" rx="2" fill="#333"/>

  <rect x="00" y="90" width="9" height="9" rx="2" fill="#333"/>
  <rect x="10" y="90" width="9" height="9" rx="2" fill="#333"/>
  <rect x="20" y="90" width="9" height="9" rx="2" fill="#333"/>
  <rect x="30" y="90" width="9" height="9" rx="2" fill="#333"/>
  <rect x="40" y="90" width="9" height="9" rx="2" fill="#333"/>
</svg>